<?xml version="1.0" encoding="iso-8859-1"?>
<!-- Generator: Adobe Illustrator 19.0.0, SVG Export Plug-In . SVG Version: 6.00 Build 0)  -->
<svg version="1.1" id="Capa_1" xmlns="http://www.w3.org/2000/svg" xmlns:xlink="http://www.w3.org/1999/xlink" x="0px" y="0px"
	 viewBox="0 0 512.001 512.001" style="enable-background:new 0 0 512.001 512.001;" xml:space="preserve">
<circle style="fill:#ACB8FF;" cx="326.004" cy="326.003" r="176.002"/>
<path style="fill:#FFE5BB;" d="M123.832,243.538c32.65,9.02,69.086,0.704,94.749-24.958s33.978-62.099,24.958-94.749
	L123.832,243.538z"/>
<path style="fill:#ECEEFF;" d="M201.457,60.033l-5.504-5.504c-39.052-39.052-102.37-39.052-141.422,0l0,0
	c-39.052,39.052-39.052,102.37,0,141.422l5.504,5.504"/>
<path style="fill:#AFBAFF;" d="M56.304,312.035c-20.91,20.91-55.519-2.229-44.011-29.471
	C31.239,237.707,71.398,181.018,125.616,126.8S236.522,32.424,281.378,13.477c27.242-11.506,50.382,23.101,29.471,44.011
	L56.304,312.035z"/>
<path d="M325.999,139.996c-5.522,0-10,4.478-10,10c0,5.522,4.478,10,10,10c60.142,0,112.914,32.149,142.038,80.164h-87.783
	c-33.703,0-51.173,14.195-66.587,26.719c-13.95,11.336-25.998,21.125-49.913,21.125h-38.96c-5.522,0-10,4.478-10,10s4.478,10,10,10
	h38.96c31.016,0,47.756-13.602,62.526-25.603c14.687-11.935,27.371-22.241,53.975-22.241h98.118
	c8.76,20.196,13.628,42.457,13.628,65.838c0,11.785-1.243,23.284-3.59,34.381c-7.871-7.189-19.079-10.841-33.392-10.841h-51.013
	c-12.62,0-22.108-9.651-26.588-15.313c3.822-6.742,13.416-18.947,32.779-18.947h52.779c5.522,0,10-4.478,10-10
	c0-5.522-4.478-10-10-10h-52.779c-40.699,0-53.23,35.22-53.743,36.719c-0.938,2.742-0.642,5.757,0.814,8.264
	c0.694,1.195,17.346,29.278,46.736,29.278h51.014c9.544,0,16.678,2.178,20.63,6.298c4.258,4.438,4.07,10.167,4.061,10.408
	l0.01-0.154l0.993,0.074c-6.656,17.058-16.058,32.749-27.657,46.537c-15.505-10.576-38.931-13.186-52.565-13.76
	c-23.76-1.009-47.706,2.76-62.52,9.814c-9.375,4.464-57.518,24.608-84.595-17.38c-27.183-42.158-53.846-42.064-87.592-41.906
	c-3.766-13.862-5.787-28.434-5.787-43.471c0-5.522-4.478-10-10-10c-5.522,0-10,4.478-10,10c0,102.562,83.44,186.002,186.002,186.002
	S512,428.561,512,325.999S428.561,139.996,325.999,139.996z M172.613,389.452c27.691,0.031,44.256,2.213,63.955,32.762
	c13.153,20.398,32.288,32.481,55.336,34.943c3.072,0.328,6.099,0.477,9.065,0.477c19.645-0.001,36.595-6.532,45.601-10.821
	c21.98-10.464,71.213-10.967,92.425,0.672C409.34,475.086,369.611,492,325.999,492C256.929,492,197.584,449.593,172.613,389.452z"/>
<path d="M126.751,254.544c7.608,1.669,15.299,2.5,22.947,2.5c28.105,0,55.597-11.037,75.953-31.393
	c25.896-25.895,36.693-63.329,28.893-98.901l63.382-63.382c12.891-12.892,14.697-31.736,4.495-46.893
	C312.274,1.401,294.234-3.987,277.525,3.063c-22.84,9.643-48.723,24.701-75.198,43.715c-42.944-42.201-112.21-41.979-154.87,0.68
	C4.8,90.118,4.578,159.381,46.779,202.326c-19.012,26.471-34.069,52.353-43.713,75.196c-7.054,16.707-1.664,34.751,13.412,44.898
	c6.547,4.407,13.781,6.573,20.928,6.573c9.397,0,18.642-3.746,25.965-11.069L126.751,254.544z M211.508,211.509
	c-17.79,17.791-42.263,26.824-66.895,25.389l92.283-92.284C238.339,169.232,229.3,193.719,211.508,211.509z M61.601,61.6
	c1.577-1.577,3.212-3.057,4.873-4.492v36.17c0,5.522,4.478,10,10,10s10-4.478,10-10V44.03
	c32.812-15.625,73.179-10.271,100.806,16.048l-51.6,51.596V64.467c0-5.522-4.478-10-10-10s-10,4.478-10,10v67.208l-55.605,55.601
	C26.544,152.071,27.035,96.167,61.601,61.6z M27.646,305.83c-5.579-3.756-10.127-11.121-6.154-20.528
	c9.68-22.927,25.302-49.316,45.201-76.36L208.981,66.663c27.031-19.887,53.411-35.501,76.323-45.174
	c9.404-3.976,16.77,0.575,20.525,6.154c3.625,5.387,5.265,14.271-2.047,21.583L49.228,303.782
	C41.923,311.087,33.288,309.629,27.646,305.83z"/>
<path d="M63.827,240.497c-2.641,0-5.21,1.069-7.08,2.93c-1.86,1.86-2.931,4.44-2.931,7.07c0,2.63,1.07,5.21,2.931,7.069
	c1.859,1.87,4.439,2.931,7.08,2.931c2.63,0,5.199-1.061,7.06-2.931c1.87-1.859,2.94-4.439,2.94-7.069c0-2.63-1.07-5.21-2.94-7.07
	C69.026,241.566,66.456,240.497,63.827,240.497z"/>
<path d="M110.496,193.827c-2.641,0-5.21,1.069-7.08,2.93c-1.86,1.86-2.92,4.44-2.92,7.07c0,2.64,1.06,5.21,2.92,7.069
	c1.87,1.87,4.439,2.931,7.08,2.931c2.63,0,5.2-1.061,7.06-2.931c1.87-1.859,2.931-4.43,2.931-7.069c0-2.63-1.061-5.21-2.931-7.07
	C115.697,194.896,113.126,193.827,110.496,193.827z"/>
<path d="M157.158,147.156c-2.631,0-5.21,1.069-7.07,2.93c-1.86,1.861-2.93,4.44-2.93,7.07s1.069,5.21,2.93,7.069
	c1.87,1.87,4.439,2.931,7.07,2.931c2.63,0,5.21-1.061,7.069-2.931c1.87-1.859,2.94-4.439,2.94-7.069s-1.07-5.2-2.94-7.07
	C162.368,148.225,159.797,147.156,157.158,147.156z"/>
<path d="M203.828,100.486c-2.63,0-5.21,1.069-7.07,2.939c-1.86,1.851-2.93,4.43-2.93,7.061c0,2.64,1.069,5.22,2.93,7.079
	c1.86,1.86,4.44,2.921,7.07,2.921c2.64,0,5.21-1.061,7.069-2.921c1.86-1.859,2.931-4.439,2.931-7.079c0-2.631-1.07-5.21-2.931-7.061
	C209.038,101.555,206.467,100.486,203.828,100.486z"/>
<path d="M250.498,53.825c-2.63,0-5.21,1.06-7.07,2.93c-1.86,1.85-2.93,4.43-2.93,7.07c0,2.63,1.069,5.21,2.93,7.069
	c1.86,1.86,4.44,2.931,7.07,2.931c2.63,0,5.21-1.07,7.069-2.931c1.87-1.869,2.931-4.439,2.931-7.069c0-2.641-1.061-5.21-2.931-7.07
	C255.708,54.885,253.128,53.825,250.498,53.825z"/>
<path d="M76.476,137.225c2.63,0,5.2-1.069,7.07-2.93c1.86-1.87,2.93-4.45,2.93-7.07c0-2.64-1.069-5.21-2.93-7.08
	c-1.86-1.859-4.44-2.92-7.07-2.92c-2.64,0-5.22,1.061-7.069,2.92c-1.86,1.86-2.931,4.44-2.931,7.08c0,2.63,1.07,5.21,2.931,7.07
	C71.266,136.156,73.846,137.225,76.476,137.225z"/>
<path d="M181.427,290.937c-1.86,1.851-2.93,4.431-2.93,7.07c0,2.63,1.069,5.21,2.93,7.07c1.86,1.859,4.44,2.93,7.07,2.93
	s5.21-1.07,7.069-2.93c1.86-1.86,2.931-4.44,2.931-7.07c0-2.64-1.07-5.21-2.931-7.07c-1.859-1.87-4.439-2.93-7.069-2.93
	S183.288,289.067,181.427,290.937z"/>
<path d="M428,98.21h14v14.387c0,5.522,4.478,10,10,10c5.522,0,10-4.478,10-10V98.21h14c5.522,0,10-4.478,10-10s-4.478-10-10-10h-14
	V63.821c0-5.522-4.478-10-10-10c-5.522,0-10,4.478-10,10V78.21h-14c-5.522,0-10,4.478-10,10S422.477,98.21,428,98.21z"/>
<path d="M110.491,422.999h-14v-14.388c0-5.522-4.478-10-10-10s-10,4.478-10,10v14.388h-14c-5.522,0-10,4.478-10,10
	c0,5.522,4.478,10,10,10h14v14.388c0,5.522,4.478,10,10,10s10-4.478,10-10v-14.388h14c5.522,0,10-4.478,10-10
	C120.492,427.477,116.013,422.999,110.491,422.999z"/>
<g>
</g>
<g>
</g>
<g>
</g>
<g>
</g>
<g>
</g>
<g>
</g>
<g>
</g>
<g>
</g>
<g>
</g>
<g>
</g>
<g>
</g>
<g>
</g>
<g>
</g>
<g>
</g>
<g>
</g>
</svg>
